<?xml version="1.0" standalone="no"?><!DOCTYPE svg PUBLIC "-//W3C//DTD SVG 1.1//EN" "http://www.w3.org/Graphics/SVG/1.1/DTD/svg11.dtd"><svg t="1669135615316" class="icon" viewBox="0 0 1024 1024" version="1.1" xmlns="http://www.w3.org/2000/svg" p-id="7459" xmlns:xlink="http://www.w3.org/1999/xlink" width="200" height="200"><path d="M170.666667 512c0 93.866667 38.4 179.2 102.4 238.933333L170.666667 853.333333h256v-256l-93.866667 93.866667C285.866667 648.533333 256 584.533333 256 512c0-110.933333 72.533333-204.8 170.666667-243.2v-85.333333c-145.066667 38.4-256 170.666667-256 328.533333z m682.666666-341.333333h-256v256l93.866667-93.866667c46.933333 42.666667 76.8 106.666667 76.8 179.2 0 110.933333-72.533333 204.8-170.666667 243.2v89.6c145.066667-38.4 256-170.666667 256-328.533333 0-93.866667-38.4-179.2-102.4-238.933334L853.333333 170.666667z" p-id="7460"></path></svg>